Coordinates
version=1
nRows=26
nColumns=22
inDegrees=yes

Units are S.I. units (second, meters, Newtons, ...)
If the header above contains a line with 'inDegrees', this indicates whether rotational values are in degrees (yes) or radians (no).

endheader
time	pelvis_tilt	pelvis_list	pelvis_rotation	pelvis_tx	pelvis_ty	pelvis_tz	hip_flexion_r	hip_adduction_r	hip_rotation_r	knee_angle_r	ankle_angle_r	subtalar_angle_r	hip_flexion_l	hip_adduction_l	hip_rotation_l	knee_angle_l	ankle_angle_l	subtalar_angle_l	lumbar_extension	lumbar_bending	lumbar_rotation
      1.46000000	     -3.74044679	      0.40868060	     -5.88693679	     -1.28183197	      0.99656166	     -0.64783059	     23.86335275	     -5.42169029	      0.10844321	    -47.83951158	      7.49784620	      0.58228837	     -1.14070303	      3.59849166	    -11.17975532	     -8.42419041	     14.79504510	     -4.45273614	     -5.22452776	     -3.85373654	     -4.08399459
      1.47000000	     -3.74152563	      0.32759545	     -5.83709267	     -1.28001924	      0.99644123	     -0.64893886	     24.77911525	     -5.33884046	     -0.07938463	    -48.83844929	      7.50293373	      0.30487484	     -1.34123163	      3.60212175	    -11.11994926	     -8.26103689	     14.85450973	     -4.44141572	     -5.32058052	     -3.73369016	     -4.23932143
      1.48000000	     -3.74483767	      0.21801201	     -5.76142124	     -1.27810264	      0.99637107	     -0.65002194	     25.62757996	     -5.24119871	     -0.35151218	    -49.59139724	      7.59204563	      0.09935732	     -1.53771345	      3.56959540	    -11.03793687	     -8.11825769	     14.90421228	     -4.42634626	     -5.41856332	     -3.57956845	     -4.41184353
      1.49000000	     -3.73982866	      0.08050922	     -5.68351279	     -1.27607750	      0.99635691	     -0.65103090	     26.39885168	     -5.11582719	     -0.67333685	    -50.09626228	      7.75444830	     -0.01862384	     -1.75163163	      3.50440601	    -10.92790341	     -7.97868318	     14.94936478	     -4.40769785	     -5.52706443	     -3.39986259	     -4.56326250
      1.50000000	     -3.75684766	     -0.06377289	     -5.56822530	     -1.27398125	      0.99633716	     -0.65206438	     27.13158364	     -5.00861653	     -1.08417650	    -50.36347392	      7.92892633	     -0.12161943	     -1.91580165	      3.42235233	    -10.81994818	     -7.89420174	     14.97865863	     -4.38978378	     -5.61639507	     -3.20325968	     -4.75642983
      1.51000000	     -3.77452597	     -0.21805070	     -5.44268672	     -1.27180454	      0.99632760	     -0.65303639	     27.80616942	     -4.89702174	     -1.54231607	    -50.39956526	      8.10258923	     -0.19612611	     -2.07024020	      3.32201181	    -10.70147607	     -7.83745307	     15.02135606	     -4.37517067	     -5.70775223	     -3.00245402	     -4.94266280
      1.52000000	     -3.78844747	     -0.38330409	     -5.31191533	     -1.26953518	      0.99632080	     -0.65397477	     28.41726555	     -4.78113877	     -2.04047380	    -50.20978138	      8.28276722	     -0.23788391	     -2.21981016	      3.20620345	    -10.57515388	     -7.80970600	     15.07160493	     -4.36005717	     -5.80496140	     -2.78719583	     -5.12786931
      1.53000000	     -3.79200754	     -0.55974921	     -5.16872430	     -1.26716444	      0.99631632	     -0.65488399	     28.95605225	     -4.66816278	     -2.59363161	    -49.79976514	      8.42331657	     -0.24914428	     -2.37278512	      3.07371421	    -10.43343406	     -7.81014755	     15.16166371	     -4.34497561	     -5.91635610	     -2.55814873	     -5.31377903
      1.54000000	     -3.78737467	     -0.74105882	     -5.03210445	     -1.26468840	      0.99629505	     -0.65570344	     29.43173713	     -4.53960932	     -3.15043247	    -49.18978319	      8.58000255	     -0.21679191	     -2.53710175	      2.93070219	    -10.30829375	     -7.81684869	     15.24864559	     -4.32099102	     -6.03923296	     -2.32952433	     -5.48123737
      1.55000000	     -3.77538546	     -0.92172439	     -4.90396321	     -1.26209010	      0.99624591	     -0.65644549	     29.84702093	     -4.40370301	     -3.71669149	    -48.39096326	      8.72272844	     -0.14327133	     -2.71234162	      2.78439766	    -10.19503065	     -7.83248927	     15.34563119	     -4.28760888	     -6.16819106	     -2.10335132	     -5.63150104
      1.56000000	     -3.75401223	     -1.10039960	     -4.78154224	     -1.25936707	      0.99616434	     -0.65710778	     30.20188354	     -4.26001251	     -4.28718608	    -47.41833840	      8.84002020	     -0.03156061	     -2.90550072	      2.63636910	    -10.09369924	     -7.84726088	     15.45585305	     -4.24126243	     -6.30696831	     -1.88265065	     -5.76391070
      1.57000000	     -3.72939927	     -1.26937709	     -4.67094797	     -1.25651322	      0.99603034	     -0.65766971	     30.50745966	     -4.11031707	     -4.85348323	    -46.28847211	      8.93396042	      0.10557813	     -3.11123610	      2.49356039	    -10.00563275	     -7.86121449	     15.57540539	     -4.18452845	     -6.44493648	     -1.68051565	     -5.86756312
      1.58000000	     -3.71727493	     -1.42992948	     -4.57771165	     -1.25352623	      0.99582661	     -0.65812314	     30.77564918	     -3.94018121	     -5.39074687	    -45.00547914	      9.03736367	      0.24846652	     -3.31431876	      2.35452099	     -9.93350158	     -7.86983770	     15.66875906	     -4.12035815	     -6.56106886	     -1.48717108	     -5.96399920
      1.59000000	     -3.68514771	     -1.58325329	     -4.48863876	     -1.25038772	      0.99558430	     -0.65851747	     30.97753849	     -3.77213404	     -5.94381854	    -43.59250202	      9.08772993	      0.42113456	     -3.55713608	      2.22347782	     -9.87140222	     -7.86207198	     15.80785719	     -4.04325107	     -6.69467286	     -1.30440280	     -6.03446840
      1.60000000	     -3.60619093	     -1.72088923	     -4.40983848	     -1.24710514	      0.99533792	     -0.65882991	     31.09073316	     -3.61116221	     -6.50160001	    -42.07059889	      9.10014122	      0.64191668	     -3.86886768	      2.11052949	     -9.82892463	     -7.83424722	     15.99138188	     -3.93078629	     -6.87793357	     -1.14871598	     -6.08324563
      1.61000000	     -3.54448567	     -1.83674110	     -4.34863614	     -1.24369071	      0.99499904	     -0.65902318	     31.18053371	     -3.43799756	     -7.02191186	    -40.44434616	      9.15692362	      0.87069481	     -4.17948770	      2.01627551	     -9.80725982	     -7.78739717	     16.13096911	     -3.80425612	     -7.03071118	     -1.02221181	     -6.11936635
      1.62000000	     -3.50262369	     -1.94004590	     -4.28347136	     -1.24015228	      0.99454770	     -0.65915501	     31.25816222	     -3.26850817	     -7.56465975	    -38.74494012	      9.18460787	      1.09605890	     -4.47524937	      1.92956242	     -9.79622725	     -7.74304454	     16.31737062	     -3.71578596	     -7.15228269	     -0.90820460	     -6.16015715
      1.63000000	     -3.44506943	     -2.02873750	     -4.22393064	     -1.23648612	      0.99404918	     -0.65919935	     31.28907526	     -3.09812584	     -8.10887640	    -36.99008433	      9.22009220	      1.35656680	     -4.80761776	      1.85683193	     -9.79926708	     -7.67506166	     16.50066234	     -3.61016034	     -7.28414094	     -0.81638276	     -6.19505902
      1.64000000	     -3.38095904	     -2.09760800	     -4.17006236	     -1.23270704	      0.99348602	     -0.65916715	     31.30023003	     -2.93576266	     -8.66600680	    -35.22222713	      9.22461367	      1.64879250	     -5.16012289	      1.80332105	     -9.81988668	     -7.59476847	     16.70452880	     -3.49795546	     -7.41681727	     -0.74870972	     -6.22365482
      1.65000000	     -3.32516748	     -2.16479136	     -4.11974681	     -1.22882347	      0.99285422	     -0.65906814	     31.31075976	     -2.76481718	     -9.24356798	    -33.46244138	      9.18040635	      1.96864882	     -5.51564530	      1.74817388	     -9.85504208	     -7.50741889	     16.91704622	     -3.38149491	     -7.53545100	     -0.68123375	     -6.23508524
      1.66000000	     -3.25236608	     -2.21936363	     -4.08035701	     -1.22484526	      0.99219303	     -0.65887593	     31.31151265	     -2.59353046	     -9.81917769	    -31.75264416	      9.08263964	      2.34702384	     -5.90954240	      1.70577572	     -9.92192134	     -7.39140407	     17.15284182	     -3.23070005	     -7.67077660	     -0.63421064	     -6.25049569
      1.67000000	     -3.20927488	     -2.28325477	     -4.04763251	     -1.22079313	      0.99145204	     -0.65861687	     31.34622788	     -2.39991604	    -10.39794963	    -30.08948106	      8.90424746	      2.72863028	     -6.27576292	      1.64791349	     -9.99982807	     -7.28224562	     17.39738313	     -3.08278581	     -7.77302102	     -0.56910857	     -6.24960117
      1.68000000	     -3.17679576	     -2.35155880	     -4.02207948	     -1.21664553	      0.99065570	     -0.65827339	     31.39397797	     -2.18726328	    -10.96268262	    -28.48046722	      8.67636394	      3.11568249	     -6.63799205	      1.58081830	    -10.08627658	     -7.17569695	     17.65108391	     -2.92719865	     -7.86155478	     -0.49907490	     -6.24119907
      1.69000000	     -3.14752832	     -2.41707073	     -4.00245542	     -1.21241116	      0.98981162	     -0.65785072	     31.43876315	     -1.96147014	    -11.49629574	    -26.90968465	      8.45105488	      3.50985087	     -6.99887254	      1.51249895	    -10.16118153	     -7.07981159	     17.90455441	     -2.74932242	     -7.94879488	     -0.43158510	     -6.21551108
      1.70000000	     -3.13974010	     -2.48036145	     -3.98270860	     -1.20805902	      0.98887327	     -0.65736595	     31.49600053	     -1.72675574	    -12.01189205	    -25.37694956	      8.27832097	      3.85462719	     -7.32980831	      1.43897412	    -10.25074662	     -7.01276314	     18.17310334	     -2.60005369	     -8.00763258	     -0.35922713	     -6.19474054
      1.71000000	     -3.14430218	     -2.53834235	     -3.96340654	     -1.20357972	      0.98785529	     -0.65681303	     31.55117097	     -1.48396399	    -12.49428415	    -23.87624322	      8.17728225	      4.16452768	     -7.63837802	      1.36335563	    -10.33925553	     -6.97972337	     18.45050216	     -2.46610452	     -8.04825904	     -0.28627601	     -6.17658093
